<?xml version="1.0" encoding="UTF-8"?>
<!DOCTYPE svg PUBLIC "-//W3C//DTD SVG 1.1//EN" "http://www.w3.org/Graphics/SVG/1.1/DTD/svg11.dtd">
<svg xmlns="http://www.w3.org/2000/svg" version="1.1" width="512px" height="512px" style="shape-rendering:geometricPrecision; text-rendering:geometricPrecision; image-rendering:optimizeQuality; fill-rule:evenodd; clip-rule:evenodd" xmlns:xlink="http://www.w3.org/1999/xlink">
<g><path style="opacity:0.948" fill="#000000" d="M 233.5,-0.5 C 248.167,-0.5 262.833,-0.5 277.5,-0.5C 367.555,10.0943 435.388,54.4276 481,132.5C 497.855,164.278 508.022,197.945 511.5,233.5C 511.5,247.833 511.5,262.167 511.5,276.5C 507.71,314.375 496.543,350.042 478,383.5C 474.345,388.275 469.512,389.775 463.5,388C 451.917,381.293 440.417,374.459 429,367.5C 379.881,437.793 312.381,468.627 226.5,460C 217.324,458.789 208.324,456.789 199.5,454C 193.918,449.261 193.085,443.761 197,437.5C 199.409,435.418 202.243,434.418 205.5,434.5C 218.652,437.712 231.985,439.712 245.5,440.5C 245.333,425.83 245.5,411.163 246,396.5C 248.186,392.982 251.353,391.148 255.5,391C 264.381,390.652 273.214,389.819 282,388.5C 291.905,389.633 295.238,394.966 292,404.5C 290.833,405.667 289.667,406.833 288.5,408C 280.974,410.066 273.307,411.233 265.5,411.5C 265.5,421.167 265.5,430.833 265.5,440.5C 291.438,439.518 315.772,432.851 338.5,420.5C 331.747,409.33 325.247,397.996 319,386.5C 316.822,376.019 320.988,371.185 331.5,372C 333.587,372.792 335.421,373.959 337,375.5C 343.92,387.004 350.586,398.671 357,410.5C 408.04,375.779 435.873,327.446 440.5,265.5C 430.833,265.5 421.167,265.5 411.5,265.5C 409.319,298.893 397.819,328.56 377,354.5C 370.667,361.167 364.333,361.167 358,354.5C 356.34,350.422 356.673,346.422 359,342.5C 362.3,339.25 364.634,335.583 366,331.5C 355.248,325.207 344.415,319.04 333.5,313C 328.919,309.562 327.419,305.062 329,299.5C 334.528,289.083 338.361,278.083 340.5,266.5C 330.851,265.335 321.184,265.168 311.5,266C 305,289.833 289.833,305 266,311.5C 265.168,321.184 265.335,330.851 266.5,340.5C 278.083,338.361 289.083,334.528 299.5,329C 311.396,327.898 315.562,333.064 312,344.5C 307.418,348.545 302.251,351.711 296.5,354C 256.609,368.462 219.943,362.795 186.5,337C 179.926,331.096 174.092,324.596 169,317.5C 161.164,322.419 153.164,327.086 145,331.5C 151.164,343.022 159.664,352.856 170.5,361C 177.228,366.059 184.228,370.726 191.5,375C 200.471,378.984 209.304,383.151 218,387.5C 221.429,394.282 219.929,399.782 213.5,404C 210.833,404.667 208.167,404.667 205.5,404C 159.949,387.781 128.115,357.281 110,312.5C 109.672,303.162 114.172,298.995 123.5,300C 128.397,303.274 131.73,307.774 133.5,313.5C 141.963,308.866 150.296,304.033 158.5,299C 149.13,276.911 146.964,254.078 152,230.5C 153.577,224.101 155.744,217.935 158.5,212C 150.296,206.967 141.963,202.134 133.5,197.5C 132.038,201.593 129.705,205.093 126.5,208C 117.663,211.169 112.329,208.169 110.5,199C 118.99,175.83 132.324,155.83 150.5,139C 156.448,134.546 162.115,129.88 167.5,125C 161.387,113.273 154.887,101.773 148,90.5C 145.937,82.4588 148.77,76.9588 156.5,74C 205.942,48.2223 257.609,42.5556 311.5,57C 317.082,61.7388 317.915,67.2388 314,73.5C 312.829,74.8932 311.329,75.7265 309.5,76C 294.953,73.661 280.286,71.8276 265.5,70.5C 265.667,85.1705 265.5,99.8371 265,114.5C 261.345,119.275 256.512,120.775 250.5,119C 248.667,117.833 247.167,116.333 246,114.5C 245.5,99.8371 245.333,85.1705 245.5,70.5C 219.621,71.7186 195.287,78.3853 172.5,90.5C 177.041,98.416 181.707,106.249 186.5,114C 193.747,111.147 201.247,108.647 209,106.5C 217.237,107.636 220.571,112.303 219,120.5C 218.028,122.305 216.861,123.972 215.5,125.5C 186.625,135.674 163.125,153.007 145,177.5C 144.383,178.449 144.549,179.282 145.5,180C 153.578,184.121 161.411,188.621 169,193.5C 198.793,155.788 237.293,142.288 284.5,153C 289.506,154.445 294.339,156.279 299,158.5C 304.033,150.296 308.866,141.963 313.5,133.5C 307.593,130.641 301.593,127.975 295.5,125.5C 288.629,116.041 290.796,109.708 302,106.5C 340.72,118.356 370.386,141.689 391,176.5C 393.912,189.92 388.746,194.754 375.5,191C 369.366,181.9 362.866,173.067 356,164.5C 348.607,157.271 340.774,150.604 332.5,144.5C 327.389,152.547 322.389,160.714 317.5,169C 331.637,178.629 342.304,191.129 349.5,206.5C 347.705,216.401 342.038,219.567 332.5,216C 309.191,179.515 276.191,165.182 233.5,173C 198.146,184.187 177.146,208.02 170.5,244.5C 180.149,245.665 189.816,245.832 199.5,245C 208.241,214.142 228.574,199.142 260.5,200C 265.916,204.611 266.916,210.111 263.5,216.5C 262.5,217.333 261.5,218.167 260.5,219C 240.596,219.353 227.429,228.853 221,247.5C 218.369,268.86 227.202,283.027 247.5,290C 268.86,292.631 283.027,283.798 290,263.5C 290.421,259.128 291.088,254.795 292,250.5C 293.167,248.667 294.667,247.167 296.5,246C 316.5,245.333 336.5,245.333 356.5,246C 358.333,247.167 359.833,248.667 361,250.5C 362.536,267.453 359.702,283.62 352.5,299C 360.667,303.833 368.833,308.667 377,313.5C 388.944,289.833 393.111,264.833 389.5,238.5C 391.086,228.208 396.752,224.874 406.5,228.5C 410.298,233.46 411.965,239.126 411.5,245.5C 426.504,245.333 441.504,245.5 456.5,246C 458.333,247.167 459.833,248.667 461,250.5C 462.645,285.279 455.478,318.112 439.5,349C 447.53,354.507 455.863,359.174 464.5,363C 493.343,305.629 498.509,246.129 480,184.5C 475.976,172.095 470.976,160.095 465,148.5C 464.282,147.549 463.449,147.383 462.5,148C 454.667,152.416 447,157.082 439.5,162C 446.608,175.657 451.942,189.99 455.5,205C 453.408,213.713 448.075,216.713 439.5,214C 437.622,212.457 436.122,210.624 435,208.5C 425.786,175.336 409.119,146.669 385,122.5C 382.165,111.67 386.331,106.503 397.5,107C 398.833,107.667 400.167,108.333 401.5,109C 411.807,119.635 420.974,131.135 429,143.5C 437.25,138.625 445.417,133.625 453.5,128.5C 434.833,99.8333 411.167,76.1667 382.5,57.5C 375.041,69.5837 367.708,81.7503 360.5,94C 353.891,97.7923 348.391,96.6256 344,90.5C 343.333,87.5 343.333,84.5 344,81.5C 350.081,70.3367 356.414,59.3367 363,48.5C 363.617,47.5509 363.451,46.7175 362.5,46C 305.179,17.6479 245.845,12.6479 184.5,31C 130.964,49.0505 88.6312,81.5505 57.5,128.5C 65.5832,133.625 73.7499,138.625 82,143.5C 90.026,131.135 99.1926,119.635 109.5,109C 118.945,104.057 124.945,106.724 127.5,117C 127.204,118.888 126.704,120.722 126,122.5C 113.392,135.062 102.726,149.062 94,164.5C 90.3186,167.36 86.1519,168.193 81.5,167C 69.8133,160.33 58.1466,153.997 46.5,148C 19.944,200.38 13.444,255.213 27,312.5C 42.7455,372.203 76.2455,419.036 127.5,453C 128.332,453.688 128.998,453.521 129.5,452.5C 134.041,444.584 138.707,436.751 143.5,429C 76.4382,382.702 45.2715,318.535 50,236.5C 50.9335,223.898 53.2668,211.565 57,199.5C 62.6334,193.221 68.6334,192.888 75,198.5C 75.9057,200.744 76.4057,203.077 76.5,205.5C 73.2879,218.652 71.2879,231.985 70.5,245.5C 85.1705,245.333 99.8371,245.5 114.5,246C 119.275,249.655 120.775,254.488 119,260.5C 117.833,262.333 116.333,263.833 114.5,265C 99.8371,265.5 85.1705,265.667 70.5,265.5C 75.9845,332.398 107.318,382.898 164.5,417C 167.36,420.681 168.193,424.848 167,429.5C 160.753,440.996 154.253,452.33 147.5,463.5C 171.67,477.218 197.67,485.718 225.5,489C 302.83,497.004 369.164,474.004 424.5,420C 433.045,417.226 438.045,420.226 439.5,429C 439.506,431.3 439.006,433.466 438,435.5C 393.709,480.06 340.209,505.393 277.5,511.5C 262.833,511.5 248.167,511.5 233.5,511.5C 143.445,500.906 75.612,456.572 30,378.5C 13.1449,346.722 2.97822,313.055 -0.5,277.5C -0.5,262.833 -0.5,248.167 -0.5,233.5C 10.0943,143.445 54.4276,75.612 132.5,30C 164.278,13.1449 197.945,2.97822 233.5,-0.5 Z M 170.5,265.5 C 180.172,265.334 189.839,265.5 199.5,266C 206,289.833 221.167,305 245,311.5C 245.832,321.184 245.665,330.851 244.5,340.5C 203.04,332.04 178.374,307.04 170.5,265.5 Z"/></g>
</svg>
